<svg xmlns="http://www.w3.org/2000/svg" viewBox="0 0 261.76 226.69">
  <defs>
    <linearGradient id="a" x1="49.51" y1="195.43" x2="225.38" y2="19.56" gradientUnits="userSpaceOnUse">
      <stop offset="0" stop-color="#41d1ff"/>
      <stop offset="1" stop-color="#bd34fe"/>
    </linearGradient>
    <linearGradient id="b" x1="94.2" y1="201.11" x2="264.08" y2="31.23" gradientUnits="userSpaceOnUse">
      <stop offset="0" stop-color="#ffea83"/>
      <stop offset="0.08" stop-color="#ffdd35"/>
      <stop offset="1" stop-color="#ffa800"/>
    </linearGradient>
  </defs>
  <path fill="url(#a)" d="M255.15 36.26L134.7 216.34c-2.48 3.73-7.98 3.77-10.51.07L6.54 36.28c-2.78-4.26.9-9.81 5.75-8.68l121.04 28.53a6.7 6.7 0 0 0 3.08 0l113.1-28.55c4.86-1.23 8.57 4.35 5.64 8.68Z"/>
  <path fill="url(#b)" d="M185.43 0L96.18 18.21a3.35 3.35 0 0 0-2.7 2.75l-5.5 93.19a3.35 3.35 0 0 0 4.1 3.48l24.83-5.73a3.35 3.35 0 0 1 4.02 3.94l-7.38 36.15a3.35 3.35 0 0 0 4.6 3.79l15.33-6.72a3.35 3.35 0 0 1 4.38 4.33l-11.73 33.6c-1.6 4.58 4.48 8.4 7.45 4.64l1.98-2.54 72.7-145.1c1.22-2.44-.89-5.22-3.6-4.71Z"/>
</svg>